

<svg width="180" height="40" viewBox="0 0 180 40" fill="none" xmlns="http://www.w3.org/2000/svg">
  <path d="M15 8H34.3438L37.8438 11.5V31.5L34.3438 35H15L11.5 31.5V11.5L15 8Z" fill="#2D3748" fillOpacity="0.05"/>
  <path d="M48.0625 16.625L56.9062 27.1875V16.625H59.4062V31.5H57.0312L48.1875 20.9375V31.5H45.6875V16.625H48.0625Z" fill="#2D3748"/>
  <path d="M68.125 31.5V18.8438H62.5V16.625H76.2812V18.8438H70.625V31.5H68.125Z" fill="#2D3748"/>
  <path d="M85.9688 31.5V16.625H88.4688V24.25H97.0938V16.625H99.5938V31.5H97.0938V26.4688H88.4688V31.5H85.9688Z" fill="#2D3748"/>
  <path d="M107.344 31.5V16.625H109.844V24.1562H110.219L117.812 16.625H121.062L113.375 24.125L121.25 31.5H118.031L111.906 25.8125L109.844 27.875V31.5H107.344Z" fill="#2D3748"/>
  <path d="M127.656 31.5V16.625H135.906C137.052 16.625 138.01 16.8229 138.781 17.2188C139.552 17.6042 140.135 18.1458 140.531 18.8438C140.927 19.5312 141.125 20.2917 141.125 21.125C141.125 21.9167 140.943 22.6042 140.578 23.1875C140.224 23.7708 139.729 24.2188 139.094 24.5312C138.469 24.8438 137.75 25 136.938 25H129.281V22.7812H136.469C137.01 22.7812 137.469 22.6875 137.844 22.5C138.219 22.3125 138.5 22.0521 138.688 21.7188C138.885 21.375 138.984 20.9792 138.984 20.5312C138.984 20.0729 138.885 19.6667 138.688 19.3125C138.49 18.9583 138.203 18.6875 137.828 18.5C137.453 18.3125 136.995 18.2188 136.453 18.2188H130.156V31.5H127.656Z" fill="#2D3748"/>
  <path d="M148.906 31.5V16.625H151.969L158.719 27.5312H157.969L164.719 16.625H167.781L167.812 31.5H165.375L165.344 20.9375H165.844L160.406 29.8125H156.281L150.875 20.9375H151.375V31.5H148.906Z" fill="#2D3748"/>
  <path d="M32.1562 18.9375L24.8438 26.25L17.7188 18.9375" stroke="#10B981" strokeWidth="2"/>
  <path d="M32.1562 18.9375L24.8438 26.25L17.7188 18.9375" stroke="#10B981" strokeWidth="2"/>
  <path d="M29.7188 26.0625L24.8438 30.9375L19.9688 26.0625" stroke="#10B981" strokeWidth="2"/>
  <circle cx="24.8438" cy="18.75" r="2.8125" fill="#10B981"/>
</svg>

