
<svg width="180" height="40" viewBox="0 0 180 40" fill="none" xmlns="http://www.w3.org/2000/svg">
  <path d="M24.5 8C28.6421 8 32 11.3579 32 15.5C32 19.6421 28.6421 23 24.5 23C20.3579 23 17 19.6421 17 15.5C17 11.3579 20.3579 8 24.5 8Z" fill="#10B981" fillOpacity="0.2"/>
  <path d="M24.5 10C27.5376 10 30 12.4624 30 15.5C30 18.5376 27.5376 21 24.5 21C21.4624 21 19 18.5376 19 15.5C19 12.4624 21.4624 10 24.5 10Z" stroke="#10B981" strokeWidth="2"/>
  <path d="M24.5 25C20.3579 25 17 28.3579 17 32.5" stroke="#10B981" strokeWidth="2" strokeLinecap="round"/>
  <path d="M24.5 25C28.6421 25 32 28.3579 32 32.5" stroke="#10B981" strokeWidth="2" strokeLinecap="round"/>
  <!-- नागवैशक् -->
  <path d="M45 20.5C45 19.7 45.3 19.1 45.9 18.7C46.5 18.3 47.2 18.1 48 18.1C49 18.1 49.7 18.3 50.3 18.7C50.9 19.1 51.2 19.7 51.2 20.5C51.2 21.3 50.9 21.9 50.3 22.3C49.7 22.7 49 22.9 48 22.9C47.2 22.9 46.5 22.7 45.9 22.3C45.3 21.9 45 21.3 45 20.5Z" stroke="#2D3748" strokeWidth="1"/>
  <path d="M54 17.5C54 16.7 54.3 16.1 54.9 15.7C55.5 15.3 56.2 15.1 57 15.1C58 15.1 58.7 15.3 59.3 15.7C59.9 16.1 60.2 16.7 60.2 17.5C60.2 18.3 59.9 18.9 59.3 19.3C58.7 19.7 58 19.9 57 19.9C56.2 19.9 55.5 19.7 54.9 19.3C54.3 18.9 54 18.3 54 17.5Z" stroke="#2D3748" strokeWidth="1"/>
  <path d="M61 13.5H68" stroke="#2D3748" strokeWidth="1"/>
  <path d="M70 14.5C70 13.7 70.3 13.1 70.9 12.7C71.5 12.3 72.2 12.1 73 12.1C74 12.1 74.7 12.3 75.3 12.7C75.9 13.1 76.2 13.7 76.2 14.5C76.2 15.3 75.9 15.9 75.3 16.3C74.7 16.7 74 16.9 73 16.9C72.2 16.9 71.5 16.7 70.9 16.3C70.3 15.9 70 15.3 70 14.5Z" stroke="#2D3748" strokeWidth="1"/>
  <path d="M79 20.5C79 19.7 79.3 19.1 79.9 18.7C80.5 18.3 81.2 18.1 82 18.1C83 18.1 83.7 18.3 84.3 18.7C84.9 19.1 85.2 19.7 85.2 20.5C85.2 21.3 84.9 21.9 84.3 22.3C83.7 22.7 83 22.9 82 22.9C81.2 22.9 80.5 22.7 79.9 22.3C79.3 21.9 79 21.3 79 20.5Z" stroke="#2D3748" strokeWidth="1"/>
  <path d="M88 17.5C88 16.7 88.3 16.1 88.9 15.7C89.5 15.3 90.2 15.1 91 15.1C92 15.1 92.7 15.3 93.3 15.7C93.9 16.1 94.2 16.7 94.2 17.5C94.2 18.3 93.9 18.9 93.3 19.3C92.7 19.7 92 19.9 91 19.9C90.2 19.9 89.5 19.7 88.9 19.3C88.3 18.9 88 18.3 88 17.5Z" stroke="#2D3748" strokeWidth="1"/>
  <path d="M97 19.5C97 18.7 97.3 18.1 97.9 17.7C98.5 17.3 99.2 17.1 100 17.1C101 17.1 101.7 17.3 102.3 17.7C102.9 18.1 103.2 18.7 103.2 19.5C103.2 20.3 102.9 20.9 102.3 21.3C101.7 21.7 101 21.9 100 21.9C99.2 21.9 98.5 21.7 97.9 21.3C97.3 20.9 97 20.3 97 19.5Z" stroke="#2D3748" strokeWidth="1"/>
  <path d="M108 13.5H115" stroke="#2D3748" strokeWidth="1"/>
</svg>
